<?xml version="1.0" encoding="UTF-8"?>
<svg id="Layer_2" data-name="Layer 2" xmlns="http://www.w3.org/2000/svg" viewBox="0 0 255.09 71">
  <defs>
    <style>
      .cls-1 {
        fill: #231f20;
      }

      .cls-2 {
        stroke: #231f20;
        stroke-miterlimit: 10;
        stroke-width: .25px;
      }
    </style>
  </defs>
  <g id="Layer_1-2" data-name="Layer 1">
    <path class="cls-1" d="M12.63,61.73h36.01v9.14H0V2.79h12.63v58.94Z"/>
    <path class="cls-1" d="M160.37,70.87c-8.78,0-16.13-2.55-22.04-7.66-5.91-5.11-10.19-11.6-12.81-19.49l11.02-4.39c1.85,6.63,4.85,12.02,9,16.17s9.06,6.23,14.74,6.23c3.82,0,7.05-.95,9.67-2.87,2.63-1.91,3.94-4.33,3.94-7.26,0-3.23-1.3-5.87-3.9-7.93-2.6-2.06-6.94-3.84-13.04-5.33-3.29-.78-6.15-1.55-8.6-2.33-2.45-.77-4.96-1.76-7.53-2.96-2.57-1.19-4.66-2.48-6.27-3.85-1.61-1.37-2.93-3.07-3.94-5.11-1.02-2.03-1.52-4.27-1.52-6.72,0-5.61,2.25-9.92,6.76-12.9,4.51-2.99,10.32-4.48,17.43-4.48,4.42,0,8.5.67,12.23,2.02,3.73,1.35,6.9,3.18,9.5,5.51,2.6,2.33,4.75,4.67,6.45,7.03,1.7,2.36,3.21,4.91,4.52,7.66l-10.48,3.67c-2.33-5.14-5.38-9.21-9.14-12.23-3.76-3.02-7.94-4.52-12.54-4.52-3.7,0-6.63.81-8.78,2.42-2.15,1.61-3.22,3.67-3.22,6.18s1.54,4.87,4.61,6.72c3.08,1.85,7.72,3.52,13.93,5.02,9.08,2.03,15.71,4.64,19.89,7.84,4.18,3.2,6.27,7.81,6.27,13.84,0,4.12-1.27,7.7-3.81,10.75-2.54,3.05-5.75,5.3-9.63,6.76-3.88,1.46-8.12,2.2-12.72,2.2Z"/>
    <path class="cls-1" d="M240.39,70.87l-29.21-37.09-7.88,5.82v31.27h-12.63V1.97h12.63v26.16L238.06,1.97h16.58l-35.12,25.71,35.57,43.18h-14.69Z"/>
    <path class="cls-2" d="M117.46,70.87c.4-10.96-7.33-19.38-12.68-28.35h-1.39s-18.17,14.82-18.17,14.82l-21.96-36.05v49.57h-9.6V2.62h9.95s24.7,40.55,24.7,40.55l11.21-10.06c-2.93-6.95-5.23-13.8-2.67-21.19,5.83-16.87,31.03-8.97,24.94,9.89-1.83,5.67-6.26,8.76-9.8,13.31,5.77,11.83,16.28,21.72,15.08,35.75h-9.6ZM107.51,25.79c3.45-2.61,6.65-8.04,4.79-12.2-.79-1.76-3.31-2.54-4.95-1.12-2.49,2.14-1.85,13.34.16,13.33Z"/>
  </g>
</svg>